<?xml version="1.0" encoding="UTF-8"?>
<svg 
    xmlns="http://www.w3.org/2000/svg"
    xmlns:xlink="http://www.w3.org/1999/xlink"
    width="100%" 
    height="100%" 
    viewBox="0 0 627.373 627.373"
    style="fill-rule:nonzero;clip-rule:evenodd;stroke-linecap:round;stroke-linejoin:round;"
    version="1.1">

    <!-- Center the original graphic vertically inside the new square layout -->
    <g transform="translate(0, 55.831)">
        <!-- ORIGINAL CONTENT BELOW -->
<g id="Capa-3">
<g opacity="1">
<path d="M340.71 38.2048C289.999 38.717 240.857 65.5475 213.771 108.876C199.74 131.32 192.092 157.216 190.097 183.527C189.842 186.88 189.748 190.235 189.665 193.598C180.009 193.603 170.361 194.884 161.052 197.482C125.22 207.483 95.6465 237.331 89.9011 274.659C88.4969 283.782 88.605 293.143 90.3167 302.217C91.7631 309.885 94.3431 317.314 97.9257 324.245C100.222 328.687 102.925 332.921 105.966 336.889C128.004 365.652 164.876 378.29 199.56 383.199C205.885 384.094 212.243 384.742 218.614 385.197C226.564 385.765 234.528 385.993 242.496 386.028C255.286 386.082 265.701 375.751 265.755 362.961C265.809 350.171 255.478 339.756 242.688 339.703C223.738 339.628 204.621 338.269 186.228 333.453C175.328 330.598 164.532 326.537 155.153 320.201C149.034 316.067 143.504 310.879 139.791 304.439C138.359 301.956 137.215 299.301 136.434 296.543C131.632 279.569 140.955 261.867 154.274 251.576C164.944 243.331 178.364 239.371 191.791 239.811C196.859 239.977 201.826 240.79 206.753 241.953C206.792 241.963 206.827 241.975 206.865 241.985C207.193 242.069 207.526 242.154 207.856 242.225C208.35 242.33 208.844 242.433 209.343 242.512C211.432 242.846 213.582 242.954 215.689 242.72C220.464 242.191 224.999 240.311 228.653 237.157C229.711 236.244 230.694 235.235 231.579 234.152C233.229 232.131 234.408 229.975 235.335 227.55C235.711 226.568 235.989 225.553 236.23 224.529C237.232 220.278 236.563 216.269 236.23 212.045C236.024 209.428 235.872 206.803 235.783 204.18C235.337 191.099 236.416 177.917 239.555 165.192C242.896 151.65 248.65 138.682 256.867 127.387C276.782 100.012 310.269 83.8093 344.051 84.2583C357.236 84.4336 370.608 87.1948 382.272 93.4978C386.662 95.8705 390.776 98.7495 394.436 102.146C407.032 113.833 412.076 130.172 411.972 146.985C411.951 150.381 411.742 153.776 411.365 157.151C411.102 159.504 410.751 161.853 410.342 164.185C409.849 166.99 409.196 169.737 409.415 172.625C409.499 173.74 409.54 174.881 409.814 175.966C410.289 177.841 410.652 179.809 411.653 181.465C413.398 184.355 415.167 187.475 417.935 189.409C421.524 191.917 425.783 193.629 430.1 194.365C433.358 194.92 436.74 193.97 439.946 193.166C441.776 192.707 443.391 191.586 445.014 190.624C446.549 189.715 447.852 188.456 449.09 187.171C449.848 186.385 450.529 185.514 451.168 184.63C451.295 184.454 451.413 184.281 451.536 184.102C451.598 184.012 451.791 183.741 451.728 183.831C452.34 182.982 452.953 182.134 453.614 181.321C454.979 179.641 456.462 178.065 458.09 176.637C463.292 172.073 469.875 169.488 476.856 170.035C479.859 170.271 482.822 171.023 485.6 172.177C489.156 173.654 492.444 175.78 495.255 178.412C498.749 181.682 501.603 185.794 502.96 190.416C506.654 202.994 497.562 213.948 488.398 221.3C486.235 223.035 483.96 224.627 481.652 226.16C481.626 226.177 481.598 226.19 481.572 226.207C481.478 226.268 481.378 226.323 481.284 226.383C480.918 226.618 480.553 226.85 480.197 227.103C479.197 227.813 478.243 228.591 477.368 229.452C476.27 230.534 475.109 231.828 474.283 233.113C473.575 234.213 472.861 235.324 472.365 236.534C471.66 238.252 470.946 240.018 470.686 241.857C470.341 244.294 470.161 246.798 470.558 249.226C470.998 251.915 471.899 254.566 473.164 256.979C474.27 259.091 475.9 260.911 477.576 262.606C478.82 263.864 480.337 264.827 481.844 265.755C482.902 266.407 484.078 266.879 485.233 267.338C488.4 268.596 492.235 268.804 495.591 269.272C496.805 269.441 497.945 269.598 499.156 269.783C502.991 270.37 506.801 271.048 510.601 271.829C513.472 272.42 516.333 273.074 519.169 273.812C527.449 275.965 535.824 278.75 543.067 283.403C546.653 285.706 549.972 288.596 552.051 292.37C553.676 295.32 554.415 298.663 554.705 301.994C555.044 305.897 554.863 309.864 554.017 313.695C553.405 316.469 552.429 319.163 551.092 321.671C544.371 334.28 530.24 338.984 516.868 340.134C512.689 340.494 508.493 340.406 504.303 340.422C498.892 340.443 493.473 340.46 488.062 340.454C470.861 340.436 453.663 340.339 436.462 340.342C429.909 340.343 423.368 340.353 416.816 340.358C411.386 340.363 406.165 340.098 401.038 342.436C399.017 343.358 397.122 344.542 395.443 346.001C393.048 348.084 391.103 350.649 389.737 353.514C388.553 355.998 388.136 358.434 387.451 361.011C386.548 364.409 385.307 367.728 383.806 370.906C378.803 381.504 371.106 390.68 362.69 398.736C359.518 401.773 356.165 404.636 352.763 407.432C353.048 405.847 353.35 404.268 353.562 402.669C354.593 394.906 354.397 387.078 354.393 379.266C354.389 370.217 354.382 361.173 354.377 352.123C354.376 348.73 354.379 345.335 354.377 341.941C354.376 339.298 354.416 336.707 354.202 334.156C354.315 331.557 354.283 328.924 354.281 326.291C354.28 322.748 354.283 319.204 354.281 315.661C354.279 311.528 354.282 307.39 354.281 303.256C354.281 299.003 354.266 294.754 354.265 290.5C357.69 288.313 361.119 286.117 364.544 283.93C366.81 282.483 369.071 281.029 371.338 279.582C382.306 272.579 393.283 265.596 404.251 258.594C406.143 257.386 408.035 256.173 409.926 254.965C411.437 254.001 412.955 253.036 414.466 252.072C414.848 251.828 415.219 251.58 415.601 251.336C415.665 251.296 415.729 251.265 415.793 251.224C415.839 251.195 416.143 250.992 416.304 250.889C416.308 250.886 416.448 250.793 416.448 250.793C408.579 238.458 400.697 226.134 392.822 213.803C392.822 213.803 392.2 214.192 392.135 214.235C391.703 214.51 391.271 214.79 390.84 215.066C389.327 216.031 387.813 216.993 386.3 217.959C379.115 222.546 371.936 227.135 364.752 231.722C361.448 233.831 358.145 235.944 354.841 238.053C355.07 222.318 355.299 206.583 355.528 190.848C355.706 178.74 346.024 168.79 333.916 168.613C321.808 168.435 311.858 178.101 311.681 190.209C311.308 215.398 310.934 240.582 310.562 265.771C310.514 268.977 310.465 272.188 310.418 275.394C310.402 276.492 310.398 277.593 310.434 278.687C310.281 281.573 310.354 284.526 310.354 287.319C310.353 291.263 310.355 295.204 310.354 299.148C299.459 293.578 288.559 287.998 277.664 282.428C277.276 282.229 276.886 282.035 276.497 281.836C274.538 280.832 272.574 279.835 270.615 278.831C270.219 278.628 269.827 278.426 269.432 278.224C269.041 278.024 268.655 277.832 268.265 277.632C268.195 277.596 268.127 277.556 268.057 277.52C268.02 277.501 267.826 277.407 267.641 277.312C267.556 277.268 267.429 277.083 267.386 277.169C260.694 290.233 253.994 303.297 247.308 316.364C247.264 316.45 247.478 316.464 247.564 316.508C247.638 316.546 247.713 316.582 247.788 316.62C247.848 316.651 247.934 316.693 247.947 316.7C247.973 316.713 248.002 316.719 248.027 316.732C248.086 316.762 248.144 316.798 248.203 316.828C248.591 317.026 248.982 317.221 249.37 317.419C249.765 317.622 250.158 317.824 250.553 318.027C250.942 318.226 251.331 318.419 251.72 318.618C254.467 320.026 257.206 321.447 259.952 322.854C273.668 329.884 287.383 336.909 301.098 343.939C304.145 345.5 307.195 347.061 310.242 348.623C310.24 352.615 310.244 356.603 310.242 360.596C310.239 367.949 310.23 375.302 310.226 382.655C310.224 386.443 310.342 390.256 310.05 394.037C309.658 399.128 308.575 404.154 306.821 408.951C300.755 425.54 287.417 438.259 273.172 448.083C268.965 450.984 264.605 453.62 260.256 456.299C256.831 458.409 253.242 460.63 250.665 463.78C249.932 464.676 249.182 465.561 248.603 466.562C247.722 468.083 246.763 469.614 246.301 471.31C245.576 473.971 244.796 476.749 245.07 479.494C245.436 483.159 246.447 486.837 248.171 490.092C249.577 492.746 251.941 494.831 254.23 496.774C255.728 498.046 257.597 498.819 259.393 499.619C260.568 500.143 261.836 500.418 263.085 500.722C265.715 501.364 269.422 501.558 272.149 501.106C273.893 500.817 275.658 500.624 277.36 500.147C278.708 499.769 279.955 499.108 281.245 498.564C282.321 498.111 283.365 497.551 284.426 497.062C287.888 495.467 291.379 493.91 294.848 492.33C325.562 478.341 355.967 462.571 382.144 441.017C397.552 428.33 411.542 413.461 421.196 395.875C423.106 392.395 424.77 388.784 426.295 385.117C429.33 385.122 432.372 385.127 435.407 385.133C451.931 385.164 468.453 385.253 484.977 385.341C491.46 385.375 497.948 385.368 504.431 385.357C510.886 385.346 517.313 385.338 523.741 384.653C542.155 382.693 560.267 376.112 574.303 363.777C579.014 359.636 583.204 354.908 586.739 349.726C590.677 343.954 593.781 337.622 595.979 330.991C598.683 322.832 599.991 314.259 600.007 305.67C600.021 298.021 599.079 290.351 596.858 283.019C595.564 278.75 593.846 274.596 591.711 270.678C581.555 252.054 563.307 240.832 543.851 233.976C542.149 233.377 540.424 232.854 538.703 232.314C539.473 231.057 540.308 229.842 541.005 228.541C544.501 222.022 547.029 214.986 548.327 207.697C552.475 184.396 543.53 161.185 526.475 145.162C507.706 127.529 480.921 120.068 456.251 126.859C456.245 126.817 456.242 126.774 456.235 126.731C454.621 116.745 451.669 106.985 447.284 97.8618C437.439 77.3804 420.572 61.1152 400.271 51.0889C388.411 45.2315 375.564 41.4858 362.482 39.6275C355.233 38.5978 347.954 38.1316 340.71 38.2048Z" fill="#7cc700" stroke="none"/>
</g>
</g>
</g>

</svg>
